<svg xmlns="http://www.w3.org/2000/svg" xmlns:xlink="http://www.w3.org/1999/xlink" width="15" height="13" viewBox="0 0 15 13">
  <defs>
    <linearGradient id="sftp-arrow-a" x1="50%" x2="50%" y1="0%" y2="100%">
      <stop offset="0%" stop-color="#66C9F8"/>
      <stop offset="100%" stop-color="#85D8FC"/>
    </linearGradient>
    <path id="sftp-arrow-b" d="M14.8480834,5.55333805 L8.22410798,0.0943216571 C8.10115716,-0.00711276915 7.92902601,-0.0286291626 7.7845588,0.0389937882 C7.64009158,0.106616739 7.54787847,0.254157723 7.54787847,0.413993788 L7.54787847,3.29104297 C4.33271453,3.40784625 2.12267355,4.54206756 0.973083385,6.66604297 C-0.0166707131,8.49801018 -0.00744940158,10.6680921 0.0017719099,12.103543 C0.0017719099,12.2203462 0.0017719099,12.331002 0.0017719099,12.4355102 C0.0017719099,12.6230102 0.1277965,12.7889938 0.31222273,12.8381741 C0.346034205,12.8473954 0.382919451,12.8504692 0.416730926,12.8504692 C0.56427191,12.8504692 0.702591582,12.7736249 0.776362074,12.6414528 C3.02021453,8.68551018 4.8675506,8.49493641 7.5448047,8.4857151 L7.5448047,11.353543 C7.5448047,11.513379 7.63701781,11.66092 7.7845588,11.728543 C7.93209978,11.7961659 8.10115716,11.7746495 8.22718175,11.6732151 L14.8480834,6.19575608 C14.9433703,6.11583805 14.9986981,5.99903477 14.9986981,5.87608395 C14.9986981,5.75313313 14.9433703,5.63325608 14.8480834,5.55333805 Z"/>
  </defs>
  <g fill="none">
    <use fill="url(#sftp-arrow-a)" fill-rule="evenodd" xlink:href="#sftp-arrow-b"/>
    <path stroke="#60C2EF" stroke-width=".5" d="M14.6880648,5.7454209 L8.06501224,0.287164977 C8.01668209,0.247292609 7.94776042,0.238634107 7.89054382,0.265416345 C7.8348347,0.291492956 7.79787847,0.350208462 7.79787847,0.413993788 L7.79787847,3.53212567 L7.5569547,3.54087816 C4.42363542,3.65470811 2.29617252,4.74672633 1.19303504,6.78487591 C0.414846983,8.22524884 0.235950328,9.639847 0.25177191,12.103543 C0.25177191,12.2756741 0.25177191,12.2756741 0.25177191,12.4355102 C0.25177191,12.5106917 0.302561835,12.5768616 0.378002081,12.5969832 C0.385192323,12.5989441 0.399222896,12.6004692 0.416730926,12.6004692 C0.476801823,12.6004692 0.529967701,12.569948 0.558907277,12.5181101 C2.55569873,8.99773947 4.04236381,8.24777713 7.54394362,8.23571658 L7.7948047,8.23485254 L7.7948047,11.353543 C7.7948047,11.4172633 7.83152269,11.4750602 7.88872247,11.5012768 C7.94982879,11.5292838 8.01791438,11.5207304 8.06782276,11.4805893 L14.6874303,6.0042082 C14.7265673,5.97138366 14.7486981,5.92447943 14.7486981,5.87608395 C14.7486981,5.82675703 14.7259016,5.77748791 14.6880648,5.7454209 Z"/>
  </g>
</svg>
