<svg width="339" height="214" viewBox="0 0 339 214" fill="none" xmlns="http://www.w3.org/2000/svg">
<path fill-rule="evenodd" clip-rule="evenodd" d="M221.113 93.8366C230.78 93.8366 239.468 97.8948 245.467 104.35C252.794 97.8196 262.546 93.8366 273.251 93.8366C296.012 93.8366 314.464 111.844 314.464 134.057C314.464 135.129 314.421 136.191 314.336 137.243C328.481 143.614 338.298 157.578 338.298 173.78C338.298 195.993 319.846 214 297.085 214C284.611 214 273.432 208.592 265.874 200.048C258.663 209.456 245.54 214 230.548 214C211.396 214 195.295 206.584 190.67 191.087C189.901 191.135 189.124 191.159 188.342 191.159C176.845 191.159 166.615 185.958 160.075 177.877C162.39 172.627 163.836 166.498 163.836 159.431V137.663L160.031 135.972C166.569 127.86 176.819 122.636 188.342 122.636L188.484 122.636C190.032 106.482 204.05 93.8366 221.113 93.8366Z" fill="url(#intro_paint0_linear)"/>
<path fill-rule="evenodd" clip-rule="evenodd" d="M78.6186 8.89937C73.5411 3.43516 66.1862 0 58.0038 0C45.7261 0 35.3114 7.7343 31.6583 18.4525C31.6932 18.4519 31.7281 18.4516 31.7631 18.4516H133.157C127.361 7.4926 115.646 0 102.137 0C93.0757 0 84.821 3.37156 78.6186 8.89937ZM139.497 38.0353V97.3073C150.067 91.4574 157.2 80.3772 157.2 67.6713C157.2 54.9654 150.067 43.8851 139.497 38.0353ZM25.8109 82.0708V24.6901C11.2079 26.7534 0 38.8126 0 53.3805C0 67.9483 11.2079 80.0075 25.8109 82.0708Z" fill="url(#intro_paint1_linear)"/>
<g opacity="0.5">
<g filter="url(#intro_filter0_dd)">
<g clip-path="url(#intro_clip0)">
<rect x="24.707" y="17.9867" width="114.577" height="171.141" rx="7.25173" fill="#1D2033"/>
<g filter="url(#intro_filter1_d)">
<path fill-rule="evenodd" clip-rule="evenodd" d="M33.4092 48.7346C33.4092 43.0487 33.4092 40.2057 34.5157 38.034C35.4891 36.1237 37.0422 34.5706 38.9525 33.5972C41.1242 32.4907 43.9672 32.4907 49.6531 32.4907H274.602C280.288 32.4907 283.131 32.4907 285.302 33.5972C287.213 34.5706 288.766 36.1237 289.739 38.034C290.846 40.2057 290.846 43.0487 290.846 48.7346V61.2076C290.846 66.8935 290.846 69.7364 289.739 71.9081C288.766 73.8184 287.213 75.3716 285.302 76.3449C283.131 77.4515 280.288 77.4515 274.602 77.4515H49.6531C43.9672 77.4515 41.1242 77.4515 38.9525 76.3449C37.0422 75.3716 35.4891 73.8184 34.5157 71.9081C33.4092 69.7364 33.4092 66.8935 33.4092 61.2076V48.7346Z" fill="#32364A"/>
</g>
<rect x="42.1113" y="41.1924" width="27.5566" height="27.5566" rx="8.70208" fill="#3E4257"/>
<path fill-rule="evenodd" clip-rule="evenodd" d="M50.0885 47.7186C49.2875 47.7186 48.6381 48.368 48.6381 49.169V53.52C48.6381 53.9205 48.9628 54.2452 49.3633 54.2452H62.4164C62.8169 54.2452 63.1416 53.9205 63.1416 53.52V49.169C63.1416 48.368 62.4923 47.7186 61.6912 47.7186H50.0885ZM60.3783 51.1717C60.3783 51.9346 59.7599 52.553 58.9971 52.553C58.2342 52.553 57.6158 51.9346 57.6158 51.1717C57.6158 50.4088 58.2342 49.7904 58.9971 49.7904C59.7599 49.7904 60.3783 50.4088 60.3783 51.1717ZM52.7813 49.7907C52.7813 49.4092 53.0905 49.1 53.472 49.1C53.8534 49.1 54.1626 49.4092 54.1626 49.7907V51.8626C54.1626 52.244 53.8534 52.5532 53.472 52.5532C53.0905 52.5532 52.7813 52.244 52.7813 51.8626V49.7907ZM51.4001 49.1C51.0186 49.1 50.7094 49.4092 50.7094 49.7907V51.8626C50.7094 52.244 51.0186 52.5532 51.4001 52.5532C51.7815 52.5532 52.0907 52.244 52.0907 51.8626V49.7907C52.0907 49.4092 51.7815 49.1 51.4001 49.1ZM54.8532 49.7907C54.8532 49.4092 55.1624 49.1 55.5439 49.1C55.9253 49.1 56.2345 49.4092 56.2345 49.7907V51.8626C56.2345 52.244 55.9253 52.5532 55.5439 52.5532C55.1624 52.5532 54.8532 52.244 54.8532 51.8626V49.7907ZM49.3629 55.6955C48.9624 55.6955 48.6377 56.0201 48.6377 56.4206V60.7717C48.6377 61.5727 49.287 62.222 50.088 62.222H61.6908C62.4918 62.222 63.1412 61.5727 63.1412 60.7717V56.4206C63.1412 56.0201 62.8165 55.6955 62.416 55.6955H49.3629ZM58.9977 59.8394C59.7605 59.8394 60.379 59.221 60.379 58.4581C60.379 57.6953 59.7605 57.0768 58.9977 57.0768C58.2348 57.0768 57.6164 57.6953 57.6164 58.4581C57.6164 59.221 58.2348 59.8394 58.9977 59.8394ZM55.5445 57.0768C55.1631 57.0768 54.8539 57.3861 54.8539 57.7675V59.8394C54.8539 60.2208 55.1631 60.5301 55.5445 60.5301C55.9259 60.5301 56.2351 60.2208 56.2351 59.8394V57.7675C56.2351 57.3861 55.9259 57.0768 55.5445 57.0768ZM50.7096 57.7675C50.7096 57.3861 51.0188 57.0768 51.4002 57.0768C51.7817 57.0768 52.0909 57.3861 52.0909 57.7675V59.8394C52.0909 60.2208 51.7817 60.5301 51.4002 60.5301C51.0188 60.5301 50.7096 60.2208 50.7096 59.8394V57.7675ZM53.4726 57.0768C53.0912 57.0768 52.782 57.3861 52.782 57.7675V59.8394C52.782 60.2208 53.0912 60.5301 53.4726 60.5301C53.854 60.5301 54.1632 60.2208 54.1632 59.8394V57.7675C54.1632 57.3861 53.854 57.0768 53.4726 57.0768Z" fill="white"/>
<rect x="78.3701" y="42.6425" width="58.0139" height="7.97691" rx="1.91372" fill="#5A5E73"/>
<rect x="78.3701" y="59.3218" width="71.7922" height="7.97691" rx="1.91372" fill="#5A5E73"/>
<g filter="url(#intro_filter2_d)">
<path fill-rule="evenodd" clip-rule="evenodd" d="M33.4092 100.947C33.4092 95.2611 33.4092 92.4182 34.5157 90.2465C35.4891 88.3362 37.0422 86.783 38.9525 85.8097C41.1242 84.7031 43.9672 84.7031 49.6531 84.7031H274.602C280.288 84.7031 283.131 84.7031 285.302 85.8097C287.213 86.783 288.766 88.3362 289.739 90.2465C290.846 92.4182 290.846 95.2611 290.846 100.947V113.42C290.846 119.106 290.846 121.949 289.739 124.121C288.766 126.031 287.213 127.584 285.302 128.557C283.131 129.664 280.288 129.664 274.602 129.664H49.6531C43.9672 129.664 41.1242 129.664 38.9525 128.557C37.0422 127.584 35.4891 126.031 34.5157 124.121C33.4092 121.949 33.4092 119.106 33.4092 113.42V100.947Z" fill="#32364A"/>
</g>
<rect x="42.1113" y="93.4049" width="27.5566" height="27.5566" rx="8.70208" fill="#3E4257"/>
<path fill-rule="evenodd" clip-rule="evenodd" d="M50.0885 99.9316C49.2875 99.9316 48.6381 100.581 48.6381 101.382V105.733C48.6381 106.133 48.9628 106.458 49.3633 106.458H62.4164C62.8169 106.458 63.1416 106.133 63.1416 105.733V101.382C63.1416 100.581 62.4923 99.9316 61.6912 99.9316H50.0885ZM60.3783 103.385C60.3783 104.148 59.7599 104.766 58.9971 104.766C58.2342 104.766 57.6158 104.148 57.6158 103.385C57.6158 102.622 58.2342 102.003 58.9971 102.003C59.7599 102.003 60.3783 102.622 60.3783 103.385ZM52.7813 102.003C52.7813 101.622 53.0905 101.313 53.472 101.313C53.8534 101.313 54.1626 101.622 54.1626 102.003V104.075C54.1626 104.457 53.8534 104.766 53.472 104.766C53.0905 104.766 52.7813 104.457 52.7813 104.075V102.003ZM51.4001 101.313C51.0186 101.313 50.7094 101.622 50.7094 102.003V104.075C50.7094 104.457 51.0186 104.766 51.4001 104.766C51.7815 104.766 52.0907 104.457 52.0907 104.075V102.003C52.0907 101.622 51.7815 101.313 51.4001 101.313ZM54.8532 102.003C54.8532 101.622 55.1624 101.313 55.5439 101.313C55.9253 101.313 56.2345 101.622 56.2345 102.003V104.075C56.2345 104.457 55.9253 104.766 55.5439 104.766C55.1624 104.766 54.8532 104.457 54.8532 104.075V102.003ZM49.3629 107.909C48.9624 107.909 48.6377 108.233 48.6377 108.634V112.985C48.6377 113.786 49.287 114.435 50.088 114.435H61.6908C62.4918 114.435 63.1412 113.786 63.1412 112.985V108.634C63.1412 108.233 62.8165 107.909 62.416 107.909H49.3629ZM58.9977 112.052C59.7605 112.052 60.379 111.434 60.379 110.671C60.379 109.908 59.7605 109.29 58.9977 109.29C58.2348 109.29 57.6164 109.908 57.6164 110.671C57.6164 111.434 58.2348 112.052 58.9977 112.052ZM55.5445 109.29C55.1631 109.29 54.8539 109.599 54.8539 109.98V112.052C54.8539 112.434 55.1631 112.743 55.5445 112.743C55.9259 112.743 56.2351 112.434 56.2351 112.052V109.98C56.2351 109.599 55.9259 109.29 55.5445 109.29ZM50.7096 109.98C50.7096 109.599 51.0188 109.29 51.4002 109.29C51.7817 109.29 52.0909 109.599 52.0909 109.98V112.052C52.0909 112.434 51.7817 112.743 51.4002 112.743C51.0188 112.743 50.7096 112.434 50.7096 112.052V109.98ZM53.4726 109.29C53.0912 109.29 52.782 109.599 52.782 109.98V112.052C52.782 112.434 53.0912 112.743 53.4726 112.743C53.854 112.743 54.1632 112.434 54.1632 112.052V109.98C54.1632 109.599 53.854 109.29 53.4726 109.29Z" fill="white"/>
<rect x="78.3701" y="94.8553" width="58.0139" height="7.97691" rx="1.91372" fill="#5A5E73"/>
<rect x="78.3701" y="111.534" width="71.7922" height="7.97691" rx="1.91372" fill="#5A5E73"/>
<g filter="url(#intro_filter3_d)">
<path fill-rule="evenodd" clip-rule="evenodd" d="M33.4092 153.159C33.4092 147.474 33.4092 144.631 34.5157 142.459C35.4891 140.549 37.0422 138.995 38.9525 138.022C41.1242 136.916 43.9672 136.916 49.6531 136.916H274.602C280.288 136.916 283.131 136.916 285.302 138.022C287.213 138.995 288.766 140.549 289.739 142.459C290.846 144.631 290.846 147.474 290.846 153.159V165.632C290.846 171.318 290.846 174.161 289.739 176.333C288.766 178.243 287.213 179.796 285.302 180.77C283.131 181.876 280.288 181.876 274.602 181.876H49.6531C43.9672 181.876 41.1242 181.876 38.9525 180.77C37.0422 179.796 35.4891 178.243 34.5157 176.333C33.4092 174.161 33.4092 171.318 33.4092 165.632V153.159Z" fill="#32364A"/>
</g>
<rect x="42.1113" y="145.618" width="27.5566" height="27.5566" rx="8.70208" fill="#3E4257"/>
<path fill-rule="evenodd" clip-rule="evenodd" d="M50.0885 152.145C49.2875 152.145 48.6381 152.794 48.6381 153.595V157.946C48.6381 158.347 48.9628 158.671 49.3633 158.671H62.4164C62.8169 158.671 63.1416 158.347 63.1416 157.946V153.595C63.1416 152.794 62.4923 152.145 61.6912 152.145H50.0885ZM60.3783 155.598C60.3783 156.361 59.7599 156.979 58.9971 156.979C58.2342 156.979 57.6158 156.361 57.6158 155.598C57.6158 154.835 58.2342 154.217 58.9971 154.217C59.7599 154.217 60.3783 154.835 60.3783 155.598ZM52.7813 154.217C52.7813 153.835 53.0905 153.526 53.472 153.526C53.8534 153.526 54.1626 153.835 54.1626 154.217V156.288C54.1626 156.67 53.8534 156.979 53.472 156.979C53.0905 156.979 52.7813 156.67 52.7813 156.288V154.217ZM51.4001 153.526C51.0186 153.526 50.7094 153.835 50.7094 154.217V156.288C50.7094 156.67 51.0186 156.979 51.4001 156.979C51.7815 156.979 52.0907 156.67 52.0907 156.288V154.217C52.0907 153.835 51.7815 153.526 51.4001 153.526ZM54.8532 154.217C54.8532 153.835 55.1624 153.526 55.5439 153.526C55.9253 153.526 56.2345 153.835 56.2345 154.217V156.288C56.2345 156.67 55.9253 156.979 55.5439 156.979C55.1624 156.979 54.8532 156.67 54.8532 156.288V154.217ZM49.3629 160.122C48.9624 160.122 48.6377 160.446 48.6377 160.847V165.198C48.6377 165.999 49.287 166.648 50.088 166.648H61.6908C62.4918 166.648 63.1412 165.999 63.1412 165.198V160.847C63.1412 160.446 62.8165 160.122 62.416 160.122H49.3629ZM58.9977 164.265C59.7605 164.265 60.379 163.647 60.379 162.884C60.379 162.121 59.7605 161.503 58.9977 161.503C58.2348 161.503 57.6164 162.121 57.6164 162.884C57.6164 163.647 58.2348 164.265 58.9977 164.265ZM55.5445 161.503C55.1631 161.503 54.8539 161.812 54.8539 162.193V164.265C54.8539 164.647 55.1631 164.956 55.5445 164.956C55.9259 164.956 56.2351 164.647 56.2351 164.265V162.193C56.2351 161.812 55.9259 161.503 55.5445 161.503ZM50.7096 162.193C50.7096 161.812 51.0188 161.503 51.4002 161.503C51.7817 161.503 52.0909 161.812 52.0909 162.193V164.265C52.0909 164.647 51.7817 164.956 51.4002 164.956C51.0188 164.956 50.7096 164.647 50.7096 164.265V162.193ZM53.4726 161.503C53.0912 161.503 52.782 161.812 52.782 162.193V164.265C52.782 164.647 53.0912 164.956 53.4726 164.956C53.854 164.956 54.1632 164.647 54.1632 164.265V162.193C54.1632 161.812 53.854 161.503 53.4726 161.503Z" fill="white"/>
<rect x="78.3701" y="147.068" width="58.0139" height="7.97691" rx="1.91372" fill="#5A5E73"/>
<rect x="78.3701" y="163.747" width="71.7922" height="7.97691" rx="1.91372" fill="#5A5E73"/>
</g>
<rect x="25.9522" y="19.2319" width="112.087" height="168.651" rx="6.00652" stroke="#5A5E73" stroke-width="2.49042"/>
</g>
<g filter="url(#intro_filter4_dd)">
<path d="M160.209 159.432C160.209 181.686 140.37 196.862 131.184 199.34C121.998 196.862 102.159 181.686 102.159 159.432V142.38L131.184 126.779L160.209 142.38V159.432Z" fill="#3E4257"/>
<path d="M131.184 123.151L98.5312 137.663C98.5312 137.663 98.5312 152.175 98.5312 159.431C98.5312 187.839 121.892 201.104 131.184 202.968C140.476 201.104 163.837 187.839 163.837 159.431C163.837 152.175 163.837 137.663 163.837 137.663L131.184 123.151ZM156.581 159.431C156.581 181.686 139.22 193.006 131.184 195.484C123.148 193.006 105.787 181.686 105.787 159.431V142.379L131.184 131.092L156.581 142.379V159.431Z" fill="#32364A"/>
</g>
<g filter="url(#intro_filter5_dd)">
<rect x="40.7607" y="160.667" width="103.341" height="23.9214" rx="5.74115" fill="#5A5E73"/>
<path d="M54.2496 178.667H56.8829L52.8411 167.813H50.0395L45.9518 178.667H48.4932L49.274 176.463H53.4688L54.2496 178.667ZM51.402 170.507L52.7034 174.258H50.0701L51.402 170.507ZM64.9707 178.667V176.371H60.5003V174.289H64.5421V172.161H60.5003V170.094H64.9554V167.813H58.0814V178.667H64.9707ZM74.339 170.477C74.1093 169.206 73.0836 167.583 70.3737 167.583C68.2916 167.583 66.4851 169.022 66.4851 171.074C66.4851 172.681 67.6027 173.906 69.4398 174.258L70.9249 174.534C71.6444 174.672 72.0884 175.07 72.0884 175.621C72.0884 176.294 71.5067 176.754 70.5575 176.754C69.0724 176.754 68.3988 175.881 68.3069 174.886L66.087 175.422C66.2401 176.953 67.5261 178.897 70.5268 178.897C73.1142 178.897 74.538 177.167 74.538 175.468C74.538 173.921 73.4663 172.589 71.3995 172.207L69.9451 171.931C69.1949 171.793 68.8734 171.411 68.8734 170.89C68.8734 170.293 69.4552 169.727 70.3584 169.727C71.6751 169.727 72.0884 170.584 72.165 171.089L74.339 170.477ZM77.7726 172.712C77.7114 172.513 77.6808 172.299 77.6808 172.1C77.6808 171.273 78.1401 170.63 79.074 170.63C79.9619 170.63 80.4059 171.181 80.4059 171.809C80.4059 172.467 80.0997 172.88 79.3189 173.34L77.6961 174.289C75.8742 175.345 75.3537 176.846 75.3537 178.667H82.9014V176.647H78.3085C78.4463 176.356 78.6912 176.157 78.9821 175.973L80.8652 174.855C82.1359 174.105 82.8248 173.049 82.8248 171.763C82.8248 169.987 81.4163 168.502 79.1352 168.502C76.7469 168.502 75.4149 170.094 75.4149 171.87C75.4149 172.176 75.4609 172.574 75.5068 172.697L77.7726 172.712ZM83.5702 175.835C83.6927 177.397 85.2084 178.912 87.413 178.912C89.8931 178.912 91.3016 177.259 91.3016 175.406C91.3016 173.263 89.9085 172.084 87.8723 172.084C87.3058 172.084 86.5709 172.283 86.1882 172.62L86.5862 170.752H90.6892V168.731H84.9175L83.7999 173.891C83.8458 173.921 85.9126 174.58 85.9585 174.595C86.2035 174.289 86.6781 173.952 87.3517 173.952C88.1478 173.952 88.898 174.427 88.898 175.422C88.898 176.325 88.2244 176.861 87.413 176.861C86.4331 176.861 85.8514 176.141 85.8054 175.376L83.5702 175.835ZM99.824 168.915C99.4259 168.685 98.6911 168.502 97.7572 168.502C94.3125 168.502 92.0467 170.814 92.0467 174.335C92.0467 177.182 93.8073 178.897 96.165 178.897C98.4767 178.897 100.084 177.381 100.084 175.345C100.084 173.416 98.7829 172.038 96.7621 172.038C95.5985 172.038 94.7565 172.513 94.4044 173.079C94.6952 171.365 95.9813 170.553 97.6194 170.553C98.1705 170.553 98.7217 170.706 99.181 170.875L99.824 168.915ZM94.5881 175.437C94.5881 174.549 95.277 173.983 96.1344 173.983C96.9917 173.983 97.6959 174.549 97.6959 175.437C97.6959 176.31 96.9917 176.876 96.1344 176.876C95.277 176.876 94.5881 176.279 94.5881 175.437ZM105.698 175.1V173.003H101.105V175.1H105.698ZM112.427 178.897C115.796 178.897 117.235 176.601 117.587 175.1L115.275 174.442C115.061 175.223 114.311 176.478 112.427 176.478C110.805 176.478 109.304 175.299 109.304 173.263C109.304 170.982 110.942 169.941 112.397 169.941C114.311 169.941 114.999 171.212 115.168 171.962L117.449 171.242C117.097 169.681 115.658 167.583 112.397 167.583C109.366 167.583 106.793 169.88 106.793 173.263C106.793 176.647 109.304 178.897 112.427 178.897ZM119.108 167.813V178.667H123.487C125.538 178.667 126.885 177.366 126.885 175.59C126.885 174.182 125.936 173.278 124.956 173.049C125.844 172.758 126.549 171.839 126.549 170.722C126.549 169.053 125.309 167.813 123.165 167.813H119.108ZM121.466 172.161V169.818H122.752C123.701 169.818 124.176 170.278 124.176 170.982C124.176 171.717 123.624 172.161 122.782 172.161H121.466ZM121.466 176.692V174.151H122.981C123.931 174.151 124.482 174.672 124.482 175.422C124.482 176.203 123.915 176.692 122.981 176.692H121.466ZM133.424 178.897C136.792 178.897 138.231 176.601 138.584 175.1L136.272 174.442C136.057 175.223 135.307 176.478 133.424 176.478C131.801 176.478 130.301 175.299 130.301 173.263C130.301 170.982 131.939 169.941 133.394 169.941C135.307 169.941 135.996 171.212 136.165 171.962L138.446 171.242C138.094 169.681 136.654 167.583 133.394 167.583C130.362 167.583 127.79 169.88 127.79 173.263C127.79 176.647 130.301 178.897 133.424 178.897Z" fill="#F7F9FA"/>
</g>
</g>
<g filter="url(#intro_filter6_dd)">
<g clip-path="url(#intro_clip1)">
<rect x="186.237" y="17.2614" width="114.577" height="171.141" rx="7.25173" fill="#1D2033"/>
<g filter="url(#intro_filter7_d)">
<path fill-rule="evenodd" clip-rule="evenodd" d="M194.939 48.0088C194.939 42.3229 194.939 39.48 196.046 37.3082C197.019 35.3979 198.572 33.8448 200.483 32.8715C202.654 31.7649 205.497 31.7649 211.183 31.7649H436.132C441.818 31.7649 444.661 31.7649 446.833 32.8715C448.743 33.8448 450.296 35.3979 451.27 37.3082C452.376 39.48 452.376 42.3229 452.376 48.0088V60.4818C452.376 66.1677 452.376 69.0106 451.27 71.1824C450.296 73.0927 448.743 74.6458 446.833 75.6191C444.661 76.7257 441.818 76.7257 436.132 76.7257H211.183C205.497 76.7257 202.654 76.7257 200.483 75.6191C198.572 74.6458 197.019 73.0927 196.046 71.1824C194.939 69.0106 194.939 66.1677 194.939 60.4818V48.0088Z" fill="#32364A"/>
</g>
<rect x="203.642" y="40.4669" width="27.5566" height="27.5566" rx="8.70208" fill="#3E4257"/>
<path fill-rule="evenodd" clip-rule="evenodd" d="M211.619 46.9936C210.818 46.9936 210.169 47.643 210.169 48.444V52.795C210.169 53.1955 210.494 53.5202 210.894 53.5202H223.947C224.348 53.5202 224.672 53.1955 224.672 52.795V48.444C224.672 47.643 224.023 46.9936 223.222 46.9936H211.619ZM221.91 50.4469C221.91 51.2097 221.292 51.8281 220.529 51.8281C219.766 51.8281 219.148 51.2097 219.148 50.4469C219.148 49.684 219.766 49.0656 220.529 49.0656C221.292 49.0656 221.91 49.684 221.91 50.4469ZM214.313 49.0655C214.313 48.684 214.622 48.3748 215.003 48.3748C215.385 48.3748 215.694 48.684 215.694 49.0655V51.1374C215.694 51.5188 215.385 51.828 215.003 51.828C214.622 51.828 214.313 51.5188 214.313 51.1374V49.0655ZM212.932 48.3748C212.55 48.3748 212.241 48.684 212.241 49.0655V51.1374C212.241 51.5188 212.55 51.828 212.932 51.828C213.313 51.828 213.622 51.5188 213.622 51.1374V49.0655C213.622 48.684 213.313 48.3748 212.932 48.3748ZM216.385 49.0655C216.385 48.684 216.695 48.3748 217.076 48.3748C217.457 48.3748 217.767 48.684 217.767 49.0655V51.1374C217.767 51.5188 217.457 51.828 217.076 51.828C216.695 51.828 216.385 51.5188 216.385 51.1374V49.0655ZM210.894 54.9705C210.494 54.9705 210.169 55.2952 210.169 55.6957V60.0467C210.169 60.8477 210.818 61.4971 211.619 61.4971H223.222C224.023 61.4971 224.672 60.8477 224.672 60.0467V55.6957C224.672 55.2952 224.348 54.9705 223.947 54.9705H210.894ZM220.528 59.1143C221.291 59.1143 221.909 58.4959 221.909 57.7331C221.909 56.9702 221.291 56.3518 220.528 56.3518C219.765 56.3518 219.147 56.9702 219.147 57.7331C219.147 58.4959 219.765 59.1143 220.528 59.1143ZM217.076 56.3518C216.694 56.3518 216.385 56.661 216.385 57.0424V59.1143C216.385 59.4958 216.694 59.805 217.076 59.805C217.457 59.805 217.766 59.4958 217.766 59.1143V57.0424C217.766 56.661 217.457 56.3518 217.076 56.3518ZM212.24 57.0424C212.24 56.661 212.55 56.3518 212.931 56.3518C213.312 56.3518 213.622 56.661 213.622 57.0424V59.1143C213.622 59.4958 213.312 59.805 212.931 59.805C212.55 59.805 212.24 59.4958 212.24 59.1143V57.0424ZM215.003 56.3518C214.622 56.3518 214.312 56.661 214.312 57.0424V59.1143C214.312 59.4958 214.622 59.805 215.003 59.805C215.384 59.805 215.694 59.4958 215.694 59.1143V57.0424C215.694 56.661 215.384 56.3518 215.003 56.3518Z" fill="white"/>
<rect x="239.899" y="41.9172" width="58.0139" height="7.97691" rx="1.91372" fill="#5A5E73"/>
<rect x="239.899" y="58.5965" width="71.7922" height="7.97691" rx="1.91372" fill="#5A5E73"/>
<g filter="url(#intro_filter8_d)">
<path fill-rule="evenodd" clip-rule="evenodd" d="M194.939 100.221C194.939 94.5355 194.939 91.6925 196.046 89.5208C197.019 87.6105 198.572 86.0574 200.483 85.084C202.654 83.9775 205.497 83.9775 211.183 83.9775H436.132C441.818 83.9775 444.661 83.9775 446.833 85.084C448.743 86.0574 450.296 87.6105 451.27 89.5208C452.376 91.6925 452.376 94.5355 452.376 100.221V112.694C452.376 118.38 452.376 121.223 451.27 123.395C450.296 125.305 448.743 126.858 446.833 127.832C444.661 128.938 441.818 128.938 436.132 128.938H211.183C205.497 128.938 202.654 128.938 200.483 127.832C198.572 126.858 197.019 125.305 196.046 123.395C194.939 121.223 194.939 118.38 194.939 112.694V100.221Z" fill="#32364A"/>
</g>
<rect x="203.642" y="92.6794" width="27.5566" height="27.5566" rx="8.70208" fill="#3E4257"/>
<path fill-rule="evenodd" clip-rule="evenodd" d="M211.619 99.2062C210.818 99.2062 210.169 99.8555 210.169 100.657V105.008C210.169 105.408 210.494 105.733 210.894 105.733H223.947C224.348 105.733 224.672 105.408 224.672 105.008V100.657C224.672 99.8555 224.023 99.2062 223.222 99.2062H211.619ZM221.91 102.659C221.91 103.422 221.292 104.04 220.529 104.04C219.766 104.04 219.148 103.422 219.148 102.659C219.148 101.896 219.766 101.278 220.529 101.278C221.292 101.278 221.91 101.896 221.91 102.659ZM214.313 101.278C214.313 100.897 214.622 100.587 215.003 100.587C215.385 100.587 215.694 100.897 215.694 101.278V103.35C215.694 103.731 215.385 104.041 215.003 104.041C214.622 104.041 214.313 103.731 214.313 103.35V101.278ZM212.932 100.587C212.55 100.587 212.241 100.897 212.241 101.278V103.35C212.241 103.731 212.55 104.041 212.932 104.041C213.313 104.041 213.622 103.731 213.622 103.35V101.278C213.622 100.897 213.313 100.587 212.932 100.587ZM216.385 101.278C216.385 100.897 216.695 100.587 217.076 100.587C217.457 100.587 217.767 100.897 217.767 101.278V103.35C217.767 103.731 217.457 104.041 217.076 104.041C216.695 104.041 216.385 103.731 216.385 103.35V101.278ZM210.894 107.183C210.494 107.183 210.169 107.508 210.169 107.908V112.259C210.169 113.06 210.818 113.71 211.619 113.71H223.222C224.023 113.71 224.672 113.06 224.672 112.259V107.908C224.672 107.508 224.348 107.183 223.947 107.183H210.894ZM220.528 111.327C221.291 111.327 221.909 110.708 221.909 109.946C221.909 109.183 221.291 108.564 220.528 108.564C219.765 108.564 219.147 109.183 219.147 109.946C219.147 110.708 219.765 111.327 220.528 111.327ZM217.076 108.564C216.694 108.564 216.385 108.874 216.385 109.255V111.327C216.385 111.708 216.694 112.018 217.076 112.018C217.457 112.018 217.766 111.708 217.766 111.327V109.255C217.766 108.874 217.457 108.564 217.076 108.564ZM212.24 109.255C212.24 108.874 212.55 108.564 212.931 108.564C213.312 108.564 213.622 108.874 213.622 109.255V111.327C213.622 111.708 213.312 112.018 212.931 112.018C212.55 112.018 212.24 111.708 212.24 111.327V109.255ZM215.003 108.564C214.622 108.564 214.312 108.874 214.312 109.255V111.327C214.312 111.708 214.622 112.018 215.003 112.018C215.384 112.018 215.694 111.708 215.694 111.327V109.255C215.694 108.874 215.384 108.564 215.003 108.564Z" fill="white"/>
<rect x="239.899" y="94.1299" width="58.0139" height="7.97691" rx="1.91372" fill="#5A5E73"/>
<rect x="239.899" y="110.809" width="71.7922" height="7.97691" rx="1.91372" fill="#5A5E73"/>
<g filter="url(#intro_filter9_d)">
<path fill-rule="evenodd" clip-rule="evenodd" d="M194.939 152.434C194.939 146.748 194.939 143.905 196.046 141.733C197.019 139.823 198.572 138.27 200.483 137.296C202.654 136.19 205.497 136.19 211.183 136.19H436.132C441.818 136.19 444.661 136.19 446.833 137.296C448.743 138.27 450.296 139.823 451.27 141.733C452.376 143.905 452.376 146.748 452.376 152.434V164.907C452.376 170.593 452.376 173.436 451.27 175.607C450.296 177.518 448.743 179.071 446.833 180.044C444.661 181.151 441.818 181.151 436.132 181.151H211.183C205.497 181.151 202.654 181.151 200.483 180.044C198.572 179.071 197.019 177.518 196.046 175.607C194.939 173.436 194.939 170.593 194.939 164.907V152.434Z" fill="#32364A"/>
</g>
<rect x="203.642" y="144.892" width="27.5566" height="27.5566" rx="8.70208" fill="#3E4257"/>
<path fill-rule="evenodd" clip-rule="evenodd" d="M211.619 151.419C210.818 151.419 210.169 152.068 210.169 152.869V157.22C210.169 157.621 210.494 157.945 210.894 157.945H223.947C224.348 157.945 224.672 157.621 224.672 157.22V152.869C224.672 152.068 224.023 151.419 223.222 151.419H211.619ZM221.91 154.872C221.91 155.635 221.292 156.253 220.529 156.253C219.766 156.253 219.148 155.635 219.148 154.872C219.148 154.109 219.766 153.49 220.529 153.49C221.292 153.49 221.91 154.109 221.91 154.872ZM214.313 153.49C214.313 153.109 214.622 152.8 215.003 152.8C215.385 152.8 215.694 153.109 215.694 153.49V155.562C215.694 155.944 215.385 156.253 215.003 156.253C214.622 156.253 214.313 155.944 214.313 155.562V153.49ZM212.932 152.8C212.55 152.8 212.241 153.109 212.241 153.49V155.562C212.241 155.944 212.55 156.253 212.932 156.253C213.313 156.253 213.622 155.944 213.622 155.562V153.49C213.622 153.109 213.313 152.8 212.932 152.8ZM216.385 153.49C216.385 153.109 216.695 152.8 217.076 152.8C217.457 152.8 217.767 153.109 217.767 153.49V155.562C217.767 155.944 217.457 156.253 217.076 156.253C216.695 156.253 216.385 155.944 216.385 155.562V153.49ZM210.894 159.395C210.494 159.395 210.169 159.72 210.169 160.121V164.472C210.169 165.273 210.818 165.922 211.619 165.922H223.222C224.023 165.922 224.672 165.273 224.672 164.472V160.121C224.672 159.72 224.348 159.395 223.947 159.395H210.894ZM220.528 163.539C221.291 163.539 221.909 162.921 221.909 162.158C221.909 161.395 221.291 160.777 220.528 160.777C219.765 160.777 219.147 161.395 219.147 162.158C219.147 162.921 219.765 163.539 220.528 163.539ZM217.076 160.777C216.694 160.777 216.385 161.086 216.385 161.467V163.539C216.385 163.921 216.694 164.23 217.076 164.23C217.457 164.23 217.766 163.921 217.766 163.539V161.467C217.766 161.086 217.457 160.777 217.076 160.777ZM212.24 161.467C212.24 161.086 212.55 160.777 212.931 160.777C213.312 160.777 213.622 161.086 213.622 161.467V163.539C213.622 163.921 213.312 164.23 212.931 164.23C212.55 164.23 212.24 163.921 212.24 163.539V161.467ZM215.003 160.777C214.622 160.777 214.312 161.086 214.312 161.467V163.539C214.312 163.921 214.622 164.23 215.003 164.23C215.384 164.23 215.694 163.921 215.694 163.539V161.467C215.694 161.086 215.384 160.777 215.003 160.777Z" fill="white"/>
<rect x="239.899" y="146.342" width="58.0139" height="7.97691" rx="1.91372" fill="#5A5E73"/>
<rect x="239.899" y="163.021" width="71.7922" height="7.97691" rx="1.91372" fill="#5A5E73"/>
</g>
<rect x="187.483" y="18.5066" width="112.087" height="168.651" rx="6.00652" stroke="#5A5E73" stroke-width="2.49042"/>
</g>
<g filter="url(#intro_filter10_dd)">
<path d="M320.96 159.432C320.96 181.686 301.122 196.863 291.936 199.341C282.75 196.863 262.911 181.686 262.911 159.432V142.38L291.936 126.779L320.96 142.38V159.432Z" fill="#3E4257"/>
<path d="M291.937 123.151L259.284 137.663C259.284 137.663 259.284 152.175 259.284 159.431C259.284 187.839 282.645 201.104 291.937 202.968C301.228 201.104 324.59 187.839 324.59 159.431C324.59 152.175 324.59 137.663 324.59 137.663L291.937 123.151ZM317.334 159.431C317.334 181.686 299.973 193.006 291.937 195.484C283.901 193.006 266.54 181.686 266.54 159.431V142.379L291.937 131.092L317.334 142.379V159.431Z" fill="#32364A"/>
</g>
<g filter="url(#intro_filter11_dd)">
<rect x="209.169" y="160.667" width="90.9015" height="23.9214" rx="5.74115" fill="#5A5E73"/>
<path d="M232.452 167.813H229.619L227.476 171.334L225.333 167.813H222.424L225.93 173.232L222.424 178.667H225.271L227.399 175.146L229.543 178.667H232.482L228.961 173.263L232.452 167.813ZM241.019 170.477C240.79 169.206 239.764 167.583 237.054 167.583C234.972 167.583 233.166 169.022 233.166 171.074C233.166 172.681 234.283 173.906 236.12 174.258L237.605 174.534C238.325 174.672 238.769 175.07 238.769 175.621C238.769 176.294 238.187 176.754 237.238 176.754C235.753 176.754 235.079 175.881 234.987 174.886L232.768 175.422C232.921 176.953 234.207 178.897 237.207 178.897C239.795 178.897 241.218 177.167 241.218 175.468C241.218 173.921 240.147 172.589 238.08 172.207L236.626 171.931C235.875 171.793 235.554 171.411 235.554 170.89C235.554 170.293 236.136 169.727 237.039 169.727C238.356 169.727 238.769 170.584 238.845 171.089L241.019 170.477ZM242.111 176.57C242.111 177.779 243.076 178.882 244.744 178.882C245.755 178.882 246.49 178.453 246.888 177.81C246.888 178.331 246.949 178.606 246.964 178.667H249.062C249.046 178.591 248.97 178.086 248.97 177.489V173.768C248.97 172.207 248.067 170.829 245.602 170.829C243.367 170.829 242.356 172.268 242.264 173.355L244.285 173.768C244.331 173.202 244.775 172.651 245.586 172.651C246.321 172.651 246.704 173.033 246.704 173.477C246.704 173.738 246.566 173.937 246.153 173.998L244.362 174.274C243.106 174.457 242.111 175.223 242.111 176.57ZM245.311 177.198C244.668 177.198 244.408 176.815 244.408 176.417C244.408 175.881 244.775 175.651 245.265 175.575L246.704 175.345V175.682C246.704 176.861 246 177.198 245.311 177.198ZM253.116 178.667V167.583H250.789V178.667H253.116ZM254.402 176.509C254.464 177.351 255.229 178.897 257.617 178.897C259.654 178.897 260.649 177.626 260.649 176.325C260.649 175.207 259.883 174.258 258.306 173.937L257.296 173.738C256.959 173.676 256.699 173.493 256.699 173.171C256.699 172.773 257.082 172.513 257.526 172.513C258.23 172.513 258.551 172.942 258.613 173.447L260.542 173.095C260.465 172.207 259.7 170.829 257.495 170.829C255.796 170.829 254.571 171.962 254.571 173.355C254.571 174.427 255.214 175.345 256.837 175.697L257.709 175.896C258.276 176.019 258.459 176.249 258.459 176.524C258.459 176.861 258.169 177.182 257.572 177.182C256.775 177.182 256.408 176.677 256.377 176.157L254.402 176.509ZM261.548 176.57C261.548 177.779 262.513 178.882 264.181 178.882C265.192 178.882 265.927 178.453 266.325 177.81C266.325 178.331 266.386 178.606 266.401 178.667H268.499C268.484 178.591 268.407 178.086 268.407 177.489V173.768C268.407 172.207 267.504 170.829 265.039 170.829C262.804 170.829 261.793 172.268 261.701 173.355L263.722 173.768C263.768 173.202 264.212 172.651 265.024 172.651C265.758 172.651 266.141 173.033 266.141 173.477C266.141 173.738 266.003 173.937 265.59 173.998L263.799 174.274C262.543 174.457 261.548 175.223 261.548 176.57ZM264.748 177.198C264.105 177.198 263.845 176.815 263.845 176.417C263.845 175.881 264.212 175.651 264.702 175.575L266.141 175.345V175.682C266.141 176.861 265.437 177.198 264.748 177.198ZM272.094 172.712C272.032 172.513 272.002 172.299 272.002 172.1C272.002 171.273 272.461 170.63 273.395 170.63C274.283 170.63 274.727 171.181 274.727 171.809C274.727 172.467 274.421 172.88 273.64 173.34L272.017 174.289C270.195 175.345 269.675 176.846 269.675 178.667H277.222V176.647H272.629C272.767 176.356 273.012 176.157 273.303 175.973L275.186 174.855C276.457 174.105 277.146 173.049 277.146 171.763C277.146 169.987 275.737 168.502 273.456 168.502C271.068 168.502 269.736 170.094 269.736 171.87C269.736 172.176 269.782 172.574 269.828 172.697L272.094 172.712ZM280.479 173.707C280.479 172.911 280.57 172.13 280.846 171.548C281.122 170.997 281.566 170.63 282.3 170.63C283.051 170.63 283.479 170.997 283.755 171.548C284.046 172.13 284.138 172.911 284.138 173.707C284.138 174.503 284.046 175.284 283.755 175.866C283.479 176.417 283.051 176.784 282.3 176.784C281.566 176.784 281.122 176.417 280.846 175.866C280.57 175.284 280.479 174.503 280.479 173.707ZM278.06 173.707C278.06 174.932 278.243 176.172 278.932 177.213C279.591 178.193 280.693 178.912 282.3 178.912C283.923 178.912 285.026 178.193 285.684 177.213C286.373 176.172 286.557 174.932 286.557 173.707C286.557 172.482 286.373 171.242 285.684 170.201C285.026 169.206 283.923 168.502 282.3 168.502C280.693 168.502 279.591 169.206 278.932 170.201C278.243 171.242 278.06 172.482 278.06 173.707Z" fill="#F7F9FA"/>
</g>
<path d="M162.189 103.932L152.714 103.932L152.714 108.773L162.189 108.773L162.189 112.637L167.926 109.495L173.663 106.352L167.926 103.21L162.189 100.068L162.189 103.932Z" fill="#5A5E73"/>
<defs>
<filter id="intro_filter0_dd" x="16.7301" y="10.0098" width="130.531" height="187.095" filterUnits="userSpaceOnUse" color-interpolation-filters="sRGB">
<feFlood flood-opacity="0" result="BackgroundImageFix"/>
<feColorMatrix in="SourceAlpha" type="matrix" values="0 0 0 0 0 0 0 0 0 0 0 0 0 0 0 0 0 0 127 0"/>
<feOffset dx="-2.90069" dy="-2.90069"/>
<feGaussianBlur stdDeviation="2.53811"/>
<feColorMatrix type="matrix" values="0 0 0 0 0.351 0 0 0 0 0.3675 0 0 0 0 0.45 0 0 0 0.15 0"/>
<feBlend mode="normal" in2="BackgroundImageFix" result="effect1_dropShadow"/>
<feColorMatrix in="SourceAlpha" type="matrix" values="0 0 0 0 0 0 0 0 0 0 0 0 0 0 0 0 0 0 127 0"/>
<feOffset dx="2.90069" dy="2.90069"/>
<feGaussianBlur stdDeviation="2.53811"/>
<feColorMatrix type="matrix" values="0 0 0 0 0 0 0 0 0 0 0 0 0 0 0 0 0 0 0.15 0"/>
<feBlend mode="normal" in2="effect1_dropShadow" result="effect2_dropShadow"/>
<feBlend mode="normal" in="SourceGraphic" in2="effect2_dropShadow" result="shape"/>
</filter>
<filter id="intro_filter1_d" x="33.4092" y="32.4907" width="257.437" height="45.6859" filterUnits="userSpaceOnUse" color-interpolation-filters="sRGB">
<feFlood flood-opacity="0" result="BackgroundImageFix"/>
<feColorMatrix in="SourceAlpha" type="matrix" values="0 0 0 0 0 0 0 0 0 0 0 0 0 0 0 0 0 0 127 0"/>
<feOffset dy="0.725173"/>
<feColorMatrix type="matrix" values="0 0 0 0 0.156 0 0 0 0 0.1686 0 0 0 0 0.24 0 0 0 1 0"/>
<feBlend mode="normal" in2="BackgroundImageFix" result="effect1_dropShadow"/>
<feBlend mode="normal" in="SourceGraphic" in2="effect1_dropShadow" result="shape"/>
</filter>
<filter id="intro_filter2_d" x="33.4092" y="84.7031" width="257.437" height="45.6859" filterUnits="userSpaceOnUse" color-interpolation-filters="sRGB">
<feFlood flood-opacity="0" result="BackgroundImageFix"/>
<feColorMatrix in="SourceAlpha" type="matrix" values="0 0 0 0 0 0 0 0 0 0 0 0 0 0 0 0 0 0 127 0"/>
<feOffset dy="0.725173"/>
<feColorMatrix type="matrix" values="0 0 0 0 0.156 0 0 0 0 0.1686 0 0 0 0 0.24 0 0 0 1 0"/>
<feBlend mode="normal" in2="BackgroundImageFix" result="effect1_dropShadow"/>
<feBlend mode="normal" in="SourceGraphic" in2="effect1_dropShadow" result="shape"/>
</filter>
<filter id="intro_filter3_d" x="33.4092" y="136.916" width="257.437" height="45.6859" filterUnits="userSpaceOnUse" color-interpolation-filters="sRGB">
<feFlood flood-opacity="0" result="BackgroundImageFix"/>
<feColorMatrix in="SourceAlpha" type="matrix" values="0 0 0 0 0 0 0 0 0 0 0 0 0 0 0 0 0 0 127 0"/>
<feOffset dy="0.725173"/>
<feColorMatrix type="matrix" values="0 0 0 0 0.156 0 0 0 0 0.1686 0 0 0 0 0.24 0 0 0 1 0"/>
<feBlend mode="normal" in2="BackgroundImageFix" result="effect1_dropShadow"/>
<feBlend mode="normal" in="SourceGraphic" in2="effect1_dropShadow" result="shape"/>
</filter>
<filter id="intro_filter4_dd" x="90.5543" y="115.174" width="81.2594" height="95.7717" filterUnits="userSpaceOnUse" color-interpolation-filters="sRGB">
<feFlood flood-opacity="0" result="BackgroundImageFix"/>
<feColorMatrix in="SourceAlpha" type="matrix" values="0 0 0 0 0 0 0 0 0 0 0 0 0 0 0 0 0 0 127 0"/>
<feOffset dx="-2.90069" dy="-2.90069"/>
<feGaussianBlur stdDeviation="2.53811"/>
<feColorMatrix type="matrix" values="0 0 0 0 1 0 0 0 0 1 0 0 0 0 1 0 0 0 0.06 0"/>
<feBlend mode="normal" in2="BackgroundImageFix" result="effect1_dropShadow"/>
<feColorMatrix in="SourceAlpha" type="matrix" values="0 0 0 0 0 0 0 0 0 0 0 0 0 0 0 0 0 0 127 0"/>
<feOffset dx="2.90069" dy="2.90069"/>
<feGaussianBlur stdDeviation="2.53811"/>
<feColorMatrix type="matrix" values="0 0 0 0 0 0 0 0 0 0 0 0 0 0 0 0 0 0 0.15 0"/>
<feBlend mode="normal" in2="effect1_dropShadow" result="effect2_dropShadow"/>
<feBlend mode="normal" in="SourceGraphic" in2="effect2_dropShadow" result="shape"/>
</filter>
<filter id="intro_filter5_dd" x="32.7838" y="152.69" width="119.294" height="39.8753" filterUnits="userSpaceOnUse" color-interpolation-filters="sRGB">
<feFlood flood-opacity="0" result="BackgroundImageFix"/>
<feColorMatrix in="SourceAlpha" type="matrix" values="0 0 0 0 0 0 0 0 0 0 0 0 0 0 0 0 0 0 127 0"/>
<feOffset dx="-2.90069" dy="-2.90069"/>
<feGaussianBlur stdDeviation="2.53811"/>
<feColorMatrix type="matrix" values="0 0 0 0 1 0 0 0 0 1 0 0 0 0 1 0 0 0 0.06 0"/>
<feBlend mode="normal" in2="BackgroundImageFix" result="effect1_dropShadow"/>
<feColorMatrix in="SourceAlpha" type="matrix" values="0 0 0 0 0 0 0 0 0 0 0 0 0 0 0 0 0 0 127 0"/>
<feOffset dx="2.90069" dy="2.90069"/>
<feGaussianBlur stdDeviation="2.53811"/>
<feColorMatrix type="matrix" values="0 0 0 0 0 0 0 0 0 0 0 0 0 0 0 0 0 0 0.15 0"/>
<feBlend mode="normal" in2="effect1_dropShadow" result="effect2_dropShadow"/>
<feBlend mode="normal" in="SourceGraphic" in2="effect2_dropShadow" result="shape"/>
</filter>
<filter id="intro_filter6_dd" x="178.26" y="9.28452" width="130.531" height="187.095" filterUnits="userSpaceOnUse" color-interpolation-filters="sRGB">
<feFlood flood-opacity="0" result="BackgroundImageFix"/>
<feColorMatrix in="SourceAlpha" type="matrix" values="0 0 0 0 0 0 0 0 0 0 0 0 0 0 0 0 0 0 127 0"/>
<feOffset dx="-2.90069" dy="-2.90069"/>
<feGaussianBlur stdDeviation="2.53811"/>
<feColorMatrix type="matrix" values="0 0 0 0 0.351 0 0 0 0 0.3675 0 0 0 0 0.45 0 0 0 0.15 0"/>
<feBlend mode="normal" in2="BackgroundImageFix" result="effect1_dropShadow"/>
<feColorMatrix in="SourceAlpha" type="matrix" values="0 0 0 0 0 0 0 0 0 0 0 0 0 0 0 0 0 0 127 0"/>
<feOffset dx="2.90069" dy="2.90069"/>
<feGaussianBlur stdDeviation="2.53811"/>
<feColorMatrix type="matrix" values="0 0 0 0 0 0 0 0 0 0 0 0 0 0 0 0 0 0 0.15 0"/>
<feBlend mode="normal" in2="effect1_dropShadow" result="effect2_dropShadow"/>
<feBlend mode="normal" in="SourceGraphic" in2="effect2_dropShadow" result="shape"/>
</filter>
<filter id="intro_filter7_d" x="194.939" y="31.7649" width="257.437" height="45.6859" filterUnits="userSpaceOnUse" color-interpolation-filters="sRGB">
<feFlood flood-opacity="0" result="BackgroundImageFix"/>
<feColorMatrix in="SourceAlpha" type="matrix" values="0 0 0 0 0 0 0 0 0 0 0 0 0 0 0 0 0 0 127 0"/>
<feOffset dy="0.725173"/>
<feColorMatrix type="matrix" values="0 0 0 0 0.156 0 0 0 0 0.1686 0 0 0 0 0.24 0 0 0 1 0"/>
<feBlend mode="normal" in2="BackgroundImageFix" result="effect1_dropShadow"/>
<feBlend mode="normal" in="SourceGraphic" in2="effect1_dropShadow" result="shape"/>
</filter>
<filter id="intro_filter8_d" x="194.939" y="83.9775" width="257.437" height="45.6859" filterUnits="userSpaceOnUse" color-interpolation-filters="sRGB">
<feFlood flood-opacity="0" result="BackgroundImageFix"/>
<feColorMatrix in="SourceAlpha" type="matrix" values="0 0 0 0 0 0 0 0 0 0 0 0 0 0 0 0 0 0 127 0"/>
<feOffset dy="0.725173"/>
<feColorMatrix type="matrix" values="0 0 0 0 0.156 0 0 0 0 0.1686 0 0 0 0 0.24 0 0 0 1 0"/>
<feBlend mode="normal" in2="BackgroundImageFix" result="effect1_dropShadow"/>
<feBlend mode="normal" in="SourceGraphic" in2="effect1_dropShadow" result="shape"/>
</filter>
<filter id="intro_filter9_d" x="194.939" y="136.19" width="257.437" height="45.6859" filterUnits="userSpaceOnUse" color-interpolation-filters="sRGB">
<feFlood flood-opacity="0" result="BackgroundImageFix"/>
<feColorMatrix in="SourceAlpha" type="matrix" values="0 0 0 0 0 0 0 0 0 0 0 0 0 0 0 0 0 0 127 0"/>
<feOffset dy="0.725173"/>
<feColorMatrix type="matrix" values="0 0 0 0 0.156 0 0 0 0 0.1686 0 0 0 0 0.24 0 0 0 1 0"/>
<feBlend mode="normal" in2="BackgroundImageFix" result="effect1_dropShadow"/>
<feBlend mode="normal" in="SourceGraphic" in2="effect1_dropShadow" result="shape"/>
</filter>
<filter id="intro_filter10_dd" x="251.307" y="115.174" width="81.2594" height="95.7717" filterUnits="userSpaceOnUse" color-interpolation-filters="sRGB">
<feFlood flood-opacity="0" result="BackgroundImageFix"/>
<feColorMatrix in="SourceAlpha" type="matrix" values="0 0 0 0 0 0 0 0 0 0 0 0 0 0 0 0 0 0 127 0"/>
<feOffset dx="-2.90069" dy="-2.90069"/>
<feGaussianBlur stdDeviation="2.53811"/>
<feColorMatrix type="matrix" values="0 0 0 0 0.351 0 0 0 0 0.3675 0 0 0 0 0.45 0 0 0 0.15 0"/>
<feBlend mode="normal" in2="BackgroundImageFix" result="effect1_dropShadow"/>
<feColorMatrix in="SourceAlpha" type="matrix" values="0 0 0 0 0 0 0 0 0 0 0 0 0 0 0 0 0 0 127 0"/>
<feOffset dx="2.90069" dy="2.90069"/>
<feGaussianBlur stdDeviation="2.53811"/>
<feColorMatrix type="matrix" values="0 0 0 0 0 0 0 0 0 0 0 0 0 0 0 0 0 0 0.15 0"/>
<feBlend mode="normal" in2="effect1_dropShadow" result="effect2_dropShadow"/>
<feBlend mode="normal" in="SourceGraphic" in2="effect2_dropShadow" result="shape"/>
</filter>
<filter id="intro_filter11_dd" x="201.192" y="152.691" width="106.855" height="39.8753" filterUnits="userSpaceOnUse" color-interpolation-filters="sRGB">
<feFlood flood-opacity="0" result="BackgroundImageFix"/>
<feColorMatrix in="SourceAlpha" type="matrix" values="0 0 0 0 0 0 0 0 0 0 0 0 0 0 0 0 0 0 127 0"/>
<feOffset dx="-2.90069" dy="-2.90069"/>
<feGaussianBlur stdDeviation="2.53811"/>
<feColorMatrix type="matrix" values="0 0 0 0 0.351 0 0 0 0 0.3675 0 0 0 0 0.45 0 0 0 0.15 0"/>
<feBlend mode="normal" in2="BackgroundImageFix" result="effect1_dropShadow"/>
<feColorMatrix in="SourceAlpha" type="matrix" values="0 0 0 0 0 0 0 0 0 0 0 0 0 0 0 0 0 0 127 0"/>
<feOffset dx="2.90069" dy="2.90069"/>
<feGaussianBlur stdDeviation="2.53811"/>
<feColorMatrix type="matrix" values="0 0 0 0 0 0 0 0 0 0 0 0 0 0 0 0 0 0 0.15 0"/>
<feBlend mode="normal" in2="effect1_dropShadow" result="effect2_dropShadow"/>
<feBlend mode="normal" in="SourceGraphic" in2="effect2_dropShadow" result="shape"/>
</filter>
<linearGradient id="intro_paint0_linear" x1="207.498" y1="136.702" x2="207.498" y2="185.809" gradientUnits="userSpaceOnUse">
<stop stop-color="#5A5E73"/>
<stop offset="1" stop-color="#5A5E73" stop-opacity="0.13"/>
</linearGradient>
<linearGradient id="intro_paint1_linear" x1="46.4785" y1="36.2855" x2="46.4785" y2="77.854" gradientUnits="userSpaceOnUse">
<stop stop-color="#5A5E73"/>
<stop offset="1" stop-color="#5A5E73" stop-opacity="0.13"/>
</linearGradient>
<clipPath id="intro_clip0">
<rect x="24.707" y="17.9867" width="114.577" height="171.141" rx="7.25173" fill="white"/>
</clipPath>
<clipPath id="intro_clip1">
<rect x="186.237" y="17.2614" width="114.577" height="171.141" rx="7.25173" fill="white"/>
</clipPath>
</defs>
</svg>
