<svg xmlns="http://www.w3.org/2000/svg" xmlns:xlink="http://www.w3.org/1999/xlink" width="15" height="15" viewBox="0 0 15 15">
  <defs>
    <linearGradient id="sftp-folder-a" x1="50%" x2="50%" y1="0%" y2="100%">
      <stop offset="0%" stop-color="#66C9F8"/>
      <stop offset="100%" stop-color="#85D8FC"/>
    </linearGradient>
    <path id="sftp-folder-b" d="M801,357 L805.792893,357 L805.792893,357 C805.925501,357 806.052678,357.052678 806.146447,357.146447 L807.853553,358.853553 L807.853553,358.853553 C807.947322,358.947322 808.074499,359 808.207107,359 L814,359 L814,359 C814.552285,359 815,359.447715 815,360 L815,371 L815,371 C815,371.552285 814.552285,372 814,372 L801,372 L801,372 C800.447715,372 800,371.552285 800,371 L800,358 L800,358 C800,357.447715 800.447715,357 801,357 Z"/>
  </defs>
  <g fill="none" fill-rule="evenodd" transform="translate(-800 -357)">
    <use fill="url(#sftp-folder-a)" xlink:href="#sftp-folder-b"/>
    <path stroke="#60C2EF" stroke-width=".5" d="M801,357.25 C800.585786,357.25 800.25,357.585786 800.25,358 L800.25,371 C800.25,371.414214 800.585786,371.75 801,371.75 L814,371.75 C814.414214,371.75 814.75,371.414214 814.75,371 L814.75,360 C814.75,359.585786 814.414214,359.25 814,359.25 L808.207107,359.25 C808.008194,359.25 807.817429,359.170982 807.676777,359.03033 L805.96967,357.323223 C805.922786,357.276339 805.859197,357.25 805.792893,357.25 L801,357.25 Z"/>
  </g>
</svg>
