<svg width="466" height="300" viewBox="0 0 466 300" fill="none" xmlns="http://www.w3.org/2000/svg">
  <path d="M24.502 176.512L232.946 300L441.39 176.512V144.198L232.946 31.1689L24.502 144.198V176.512Z" fill="#32364A" />
  <path d="M53.5986 154.993L232.946 261.244L412.294 154.993V147.696C412.294 147.696 409.89 137.363 395.605 132.418C381.319 127.473 380.769 132.418 369.231 126.374C357.693 120.33 322.62 97.0196 322.62 97.0196C322.62 97.0196 312.638 81.8682 280.769 64.8352C248.901 47.8022 232.946 46.3431 232.946 46.3431C232.946 46.3431 213.187 49.4506 190.66 60.4396C168.132 71.4286 143.956 90.6594 135.714 97.8022C127.473 104.945 126.923 108.242 117.583 114.835C108.242 121.429 107.143 114.835 93.4068 121.429C79.6705 128.022 53.5986 147.696 53.5986 147.696V154.993Z" fill="#E0C38B" />
  <path d="M170.33 202.808C187.363 194.017 181.868 202.808 192.308 202.808C202.747 202.808 214.835 219.292 214.835 219.292H152.747C152.747 219.292 153.297 211.6 170.33 202.808Z" fill="#E0C38B" />
  <path d="M170.33 202.808C187.363 194.017 181.868 202.808 192.308 202.808C202.747 202.808 214.835 219.292 214.835 219.292H152.747C152.747 219.292 153.297 211.6 170.33 202.808Z" fill="url(#paint0_linear)" />
  <path d="M313.926 100.823C335.933 86.6092 328.834 100.823 342.322 100.823C355.811 100.823 371.429 127.473 371.429 127.473H291.209C291.209 127.473 291.919 115.036 313.926 100.823Z" fill="#E0C38B" />
  <path d="M313.926 100.823C335.933 86.6092 328.834 100.823 342.322 100.823C355.811 100.823 371.429 127.473 371.429 127.473H291.209C291.209 127.473 291.919 115.036 313.926 100.823Z" fill="url(#paint1_linear)" />
  <path fill-rule="evenodd" clip-rule="evenodd" d="M232.946 281.545L0 143.541V134.928L232.946 8.61243L465.892 134.928V143.541L232.946 281.545ZM232.946 255.502L43.8825 143.523L232.946 34.0397L422.01 143.523L232.946 255.502Z" fill="#3E4257" />
  <path fill-rule="evenodd" clip-rule="evenodd" d="M232.946 272.932L0 134.928L232.946 0L465.892 134.928L232.946 272.932ZM232.946 246.89L43.8825 134.911L232.946 25.4272L422.01 134.911L232.946 246.89Z" fill="#5A5E73" />
  <rect x="137.363" y="30.7692" width="190.294" height="120.574" rx="4.10116" fill="#282B3D" />
  <path fill-rule="evenodd" clip-rule="evenodd" d="M249.619 111.771C259.127 111.771 266.859 104.04 266.859 94.5319C266.859 89.7982 264.845 85.1933 261.404 81.9538C261.33 72.7914 253.857 65.3638 244.677 65.3638C242.01 65.3638 239.415 65.9919 237.067 67.1939C233.978 64.2762 229.896 62.6374 225.59 62.6374C216.608 62.6374 209.26 69.748 208.878 78.6371C203.433 81.6795 200 87.4518 200 93.765C200 103.32 207.77 111.09 217.325 111.09C217.777 111.09 218.23 111.072 218.681 111.037C221.873 116.407 227.71 119.78 234.025 119.78C240.066 119.78 245.636 116.745 248.922 111.757C249.155 111.766 249.387 111.771 249.619 111.771ZM234.025 115.231C228.908 115.231 224.2 112.246 222.007 107.613L221.264 106.045L219.556 106.346C218.824 106.475 218.073 106.54 217.325 106.54C210.282 106.54 204.549 100.807 204.549 93.765C204.549 88.7386 207.502 84.1754 212.087 82.1102L213.497 81.4749L213.425 79.9297C213.416 79.742 213.411 79.5524 213.411 79.3649C213.411 72.6518 218.877 67.1866 225.59 67.1866C229.203 67.1866 232.589 68.7648 234.916 71.532L236.226 73.0905L237.92 71.9601C239.929 70.619 242.258 69.9131 244.677 69.9131C251.39 69.9131 256.855 75.3783 256.855 82.0913C256.855 82.3336 256.848 82.5782 256.833 82.8186L256.762 83.9777L257.66 84.715C260.569 87.1059 262.31 90.7804 262.31 94.5319C262.31 101.527 256.615 107.222 249.619 107.222C249.079 107.222 248.531 107.187 247.991 107.118L246.448 106.92L245.704 108.286C243.368 112.577 238.906 115.231 234.025 115.231ZM242.667 97.0312L242.712 97.012C243.303 96.7577 243.514 96.5342 243.514 95.9178V95.1434C243.514 94.4623 243.122 94.0241 242.482 94.0241H242.447L242.318 94.0523C240.887 94.5558 239.48 94.8106 238.135 94.8106C236.797 94.8106 235.476 94.5576 234.21 94.0584L234.172 94.0435L234.029 94.0241C233.389 94.0241 232.997 94.4624 232.997 95.1434V95.9178C232.997 96.4978 233.216 96.7621 233.726 96.9816L233.781 97.0053L233.837 97.0286C235.221 97.6205 236.67 97.9215 238.138 97.9215C239.601 97.9215 241.122 97.6222 242.667 97.0312ZM222.941 90.6656C222.941 90.0414 223.265 89.6975 223.699 89.6063L227.881 88.5086L223.689 87.4084C223.254 87.2946 222.941 86.9516 222.941 86.3513V85.0331C222.941 84.457 223.287 84.2089 223.683 84.2089C223.81 84.2089 223.943 84.2367 224.075 84.2867L231.539 86.7011C232.106 86.8901 232.418 87.3454 232.418 87.9692V89.0478C232.418 89.6714 232.106 90.127 231.538 90.3162L224.059 92.7356C223.933 92.7729 223.82 92.7913 223.711 92.7913C223.242 92.7913 222.941 92.4544 222.941 91.964V90.6656Z" fill="white" />
  <path d="M146.719 37.7307C146.719 39.0331 145.663 40.0889 144.361 40.0889C143.058 40.0889 142.003 39.0331 142.003 37.7307C142.003 36.4283 143.058 35.3725 144.361 35.3725C145.663 35.3725 146.719 36.4283 146.719 37.7307Z" fill="#FF5F58" stroke="#E1483F" stroke-width="0.205058" />
  <path d="M154.921 37.7307C154.921 39.0331 153.866 40.0889 152.563 40.0889C151.261 40.0889 150.205 39.0331 150.205 37.7307C150.205 36.4283 151.261 35.3725 152.563 35.3725C153.866 35.3725 154.921 36.4283 154.921 37.7307Z" fill="#FFBE2F" stroke="#E0A028" stroke-width="0.205058" />
  <path d="M163.124 37.7307C163.124 39.0331 162.068 40.0889 160.766 40.0889C159.463 40.0889 158.407 39.0331 158.407 37.7307C158.407 36.4283 159.463 35.3725 160.766 35.3725C162.068 35.3725 163.124 36.4283 163.124 37.7307Z" fill="#2AC940" stroke="#2BAC2D" stroke-width="0.205058" />
  <path fill-rule="evenodd" clip-rule="evenodd" d="M248.183 187.551H234.235L233.042 200.84C232.992 201.029 232.967 201.223 232.967 201.419C232.967 201.478 232.969 201.537 232.974 201.595L232.967 201.671H232.981C233.232 203.921 236.82 205.706 241.209 205.706C245.598 205.706 249.186 203.921 249.437 201.671H249.451L249.444 201.595C249.448 201.537 249.451 201.478 249.451 201.419C249.451 201.223 249.425 201.029 249.376 200.84L248.183 187.551Z" fill="url(#paint2_linear)" />
  <ellipse cx="241.209" cy="187.299" rx="6.9738" ry="3.78228" fill="#F2DBAD" />
  <path fill-rule="evenodd" clip-rule="evenodd" d="M130.6 112.826H116.652L115.459 126.115C115.41 126.304 115.385 126.498 115.385 126.694C115.385 126.753 115.387 126.811 115.391 126.869L115.385 126.946H115.399C115.65 129.196 119.237 130.981 123.626 130.981C128.015 130.981 131.603 129.196 131.854 126.946H131.868L131.861 126.871C131.866 126.812 131.868 126.753 131.868 126.694C131.868 126.497 131.843 126.304 131.793 126.114L130.6 112.826Z" fill="url(#paint3_linear)" />
  <ellipse cx="123.626" cy="112.574" rx="6.9738" ry="3.78228" fill="#F2DBAD" />
  <path fill-rule="evenodd" clip-rule="evenodd" d="M374.745 122.316H354.58L352.855 141.528C352.784 141.802 352.747 142.082 352.747 142.366C352.747 142.451 352.751 142.536 352.757 142.621L352.747 142.73H352.768C353.13 145.983 358.317 148.563 364.663 148.563C371.008 148.563 376.195 145.983 376.558 142.73H376.578L376.568 142.62C376.574 142.536 376.578 142.451 376.578 142.366C376.578 142.082 376.541 141.802 376.47 141.528L374.745 122.316Z" fill="url(#paint4_linear)" />
  <ellipse cx="364.662" cy="121.952" rx="10.0821" ry="5.46809" fill="#F2DBAD" />
  <path d="M124.265 127.629C140.055 106.918 167.532 111.224 186.398 127.629C193.975 134.218 214.696 138.924 242.789 146.769C270.882 154.614 268.421 137.594 305.947 137.594C343.472 137.594 359.057 161.607 359.057 161.607H158.1L94.9419 160.009C94.9419 160.009 108.476 148.34 124.265 127.629Z" fill="url(#paint5_linear)" />
  <path fill-rule="evenodd" clip-rule="evenodd" d="M270.33 183.916H246.154L244.086 206.95C244 207.279 243.956 207.614 243.956 207.955C243.956 208.057 243.96 208.159 243.968 208.26L243.956 208.392H243.98C244.415 212.292 250.634 215.385 258.242 215.385C265.849 215.385 272.068 212.292 272.503 208.392H272.527L272.516 208.26C272.524 208.159 272.527 208.057 272.527 207.955C272.527 207.614 272.483 207.279 272.398 206.95L270.33 183.916Z" fill="url(#paint6_linear)" />
  <ellipse cx="258.242" cy="183.479" rx="12.0879" ry="6.55594" fill="#F2DBAD" />
  <defs>
    <linearGradient id="paint0_linear" x1="183.791" y1="201.142" x2="183.791" y2="219.292" gradientUnits="userSpaceOnUse">
      <stop stop-color="#E9D9BC" />
      <stop offset="1" stop-color="#E0C38B" />
    </linearGradient>
    <linearGradient id="paint1_linear" x1="331.319" y1="98.1291" x2="331.319" y2="127.473" gradientUnits="userSpaceOnUse">
      <stop stop-color="#E9D9BC" />
      <stop offset="1" stop-color="#E0C38B" />
    </linearGradient>
    <linearGradient id="paint2_linear" x1="241.209" y1="187.551" x2="241.209" y2="205.706" gradientUnits="userSpaceOnUse">
      <stop stop-color="#F2D59D" />
      <stop offset="1" stop-color="#E0C38B" />
    </linearGradient>
    <linearGradient id="paint3_linear" x1="123.626" y1="112.826" x2="123.626" y2="130.981" gradientUnits="userSpaceOnUse">
      <stop stop-color="#F2D59D" />
      <stop offset="1" stop-color="#E0C38B" />
    </linearGradient>
    <linearGradient id="paint4_linear" x1="364.663" y1="122.316" x2="364.663" y2="148.563" gradientUnits="userSpaceOnUse">
      <stop stop-color="#F2D59D" />
      <stop offset="1" stop-color="#E0C38B" />
    </linearGradient>
    <linearGradient id="paint5_linear" x1="226.999" y1="118.934" x2="226.999" y2="161.607" gradientUnits="userSpaceOnUse">
      <stop stop-color="#E9D9BC" />
      <stop offset="1" stop-color="#E0C38B" />
    </linearGradient>
    <linearGradient id="paint6_linear" x1="258.242" y1="183.916" x2="258.242" y2="215.385" gradientUnits="userSpaceOnUse">
      <stop stop-color="#F2D59D" />
      <stop offset="1" stop-color="#E0C38B" />
    </linearGradient>
  </defs>
</svg>
